<?xml version="1.0" encoding="UTF-8" standalone="no"?>
<!-- Created with Inkscape (http://www.inkscape.org/) -->

<svg
   width="210mm"
   height="297mm"
   viewBox="0 0 210 297"
   version="1.1"
   id="svg5"
   xml:space="preserve"
   inkscape:version="1.2.1 (9c6d41e410, 2022-07-14)"
   sodipodi:docname="memory_snap_logo.svg"
   xmlns:inkscape="http://www.inkscape.org/namespaces/inkscape"
   xmlns:sodipodi="http://sodipodi.sourceforge.net/DTD/sodipodi-0.dtd"
   xmlns="http://www.w3.org/2000/svg"
   xmlns:svg="http://www.w3.org/2000/svg"><sodipodi:namedview
     id="namedview7"
     pagecolor="#ffffff"
     bordercolor="#000000"
     borderopacity="0.25"
     inkscape:showpageshadow="2"
     inkscape:pageopacity="0.0"
     inkscape:pagecheckerboard="0"
     inkscape:deskcolor="#d1d1d1"
     inkscape:document-units="mm"
     showgrid="false"
     inkscape:zoom="1.6819304"
     inkscape:cx="222.36354"
     inkscape:cy="105.5335"
     inkscape:window-width="1500"
     inkscape:window-height="938"
     inkscape:window-x="-6"
     inkscape:window-y="-6"
     inkscape:window-maximized="1"
     inkscape:current-layer="layer1" /><defs
     id="defs2" /><g
     inkscape:label="Layer 1"
     inkscape:groupmode="layer"
     id="layer1"><text
       xml:space="preserve"
       style="font-style:normal;font-variant:normal;font-weight:normal;font-stretch:normal;font-size:5.64444px;font-family:'Cherry Bomb One';-inkscape-font-specification:'Cherry Bomb One';fill:#000000;stroke-width:1.5;stroke-linejoin:round"
       x="36.667088"
       y="28.85886"
       id="text426"><tspan
         sodipodi:role="line"
         id="tspan424"
         style="fill:#000000;stroke-width:1.5"
         x="36.667088"
         y="28.85886">Snap</tspan></text><g
       id="g206"
       transform="matrix(0,-0.15982602,0.15982602,0,38.062352,24.694427)"><g
         id="g1726"
         transform="matrix(0.8295,0,0,0.8295,5.115,1.6535)"><path
           id="path1723"
           style="fill:none;stroke:#ffffff;stroke-width:12.055;stroke-linecap:round;stroke-linejoin:round"
           d="m 17.19,5.5358 c 0,-0.4143 0.333,-0.748 0.748,-0.748 h 24.124 c 0.415,0 0.748,0.3337 0.748,0.748 v 17.482 c 0,0.415 -0.333,0.748 -0.748,0.748 H 17.938 c -0.415,0 -0.748,-0.333 -0.748,-0.748 z" /><path
           id="rect827"
           style="fill:#ffffff;fill-rule:evenodd;stroke:#000000;stroke-width:6.2109;stroke-linecap:round;stroke-linejoin:round"
           d="M 4.8907,16.829 C 4.4637,16.829 4.12,17.173 4.12,17.6 v 24.858 c 0,0.427 0.3437,0.771 0.7707,0.771 h 18.013 c 0.427,0 0.771,-0.344 0.771,-0.771 V 17.6 c 0,-0.427 -0.344,-0.771 -0.771,-0.771 z"
           transform="matrix(0,0.9705,0.9705,0,0.85684,0.78938)" /></g><g
         id="g1723"
         transform="matrix(0.9629,0,0,1,1.1131,-4e-6)"><path
           id="path1724"
           style="fill:none;stroke:#ffffff;stroke-width:10.191;stroke-linecap:round;stroke-linejoin:round"
           d="m 4.685,30 h 50.63" /><path
           id="path829"
           style="fill:none;stroke:#000000;stroke-width:5.2503;stroke-linecap:round;stroke-linejoin:round"
           transform="matrix(0.9705,0,0,0.9705,0.85684,0.78938)"
           d="m 3.9445,30.098 h 52.168" /></g><g
         id="g1729"
         transform="matrix(0.8295,0,0,0.8295,5.115,34.661)"><path
           id="path1730"
           style="fill:none;stroke:#ffffff;stroke-width:12.055;stroke-linecap:round;stroke-linejoin:round"
           d="m 17.19,5.5358 c 0,-0.4143 0.333,-0.748 0.748,-0.748 h 24.124 c 0.415,0 0.748,0.3337 0.748,0.748 v 17.482 c 0,0.415 -0.333,0.748 -0.748,0.748 H 17.938 c -0.415,0 -0.748,-0.333 -0.748,-0.748 z" /><path
           id="path1731"
           style="fill:#000000;fill-rule:evenodd;stroke:#000000;stroke-width:6.2109;stroke-linecap:round;stroke-linejoin:round"
           d="M 4.8907,16.829 C 4.4637,16.829 4.12,17.173 4.12,17.6 v 24.858 c 0,0.427 0.3437,0.771 0.7707,0.771 h 18.013 c 0.427,0 0.771,-0.344 0.771,-0.771 V 17.6 c 0,-0.427 -0.344,-0.771 -0.771,-0.771 z"
           transform="matrix(0,0.9705,0.9705,0,0.85684,0.78938)" /></g></g><text
       xml:space="preserve"
       style="font-size:5.64444px;fill:#000000;stroke-width:1.5;stroke-linejoin:round"
       x="32.964489"
       y="14.143039"
       id="text318"><tspan
         sodipodi:role="line"
         id="tspan316"
         style="font-style:normal;font-variant:normal;font-weight:normal;font-stretch:normal;font-family:'Cherry Bomb One';-inkscape-font-specification:'Cherry Bomb One';fill:#000000;stroke-width:1.5"
         x="32.964489"
         y="14.143039">Memory</tspan></text></g></svg>
